<?xml version="1.0" encoding="UTF-8"?>
<svg width="100px" height="109px" viewBox="0 0 100 109" version="1.1" xmlns="http://www.w3.org/2000/svg" xmlns:xlink="http://www.w3.org/1999/xlink">
    <!-- Generator: Sketch 48.2 (47327) - http://www.bohemiancoding.com/sketch -->
    <title>上传</title>
    <desc>Created with Sketch.</desc>
    <defs></defs>
    <g id="__wesketch_export" stroke="none" stroke-width="1" fill="none" fill-rule="evenodd">
        <g id="上传" fill="#4C8AFF">
            <path d="M100,43.7153503 C100,40.3144441 97.2472722,37.5578614 93.8525436,37.5578614 L66.1889105,37.5578614 C62.7935454,37.5578614 60.0414541,40.3144441 60.0414541,43.7153503 L60.0414541,54.30342 L34.8619743,54.30342 L34.5165508,53.6192545 C29.2546897,42.47037 29.9402861,27.5937162 53.6858845,28.1272792 L53.6858845,42.0133035 L75.6036499,21.0080064 L53.6858845,0 L53.6858845,13.5873693 C24.5828011,12.8596965 20.1271402,36.9846159 33.6470255,53.6216451 L34.2436806,54.30342 L22.9836064,54.30342 C19.5882414,54.30342 16.8355136,57.0604808 16.8355136,60.461387 L16.8355136,68.9764019 L4.30639389,68.9764019 C0.911187968,68.9764019 -0.839636625,71.7329846 0.396473541,75.1338908 L10.4649878,102.84267 C11.7006207,106.243577 15.4546152,109 18.8499802,109 L95.6935825,109 C98.7177485,109 100.435001,106.812519 99.9011939,103.930833 C99.9645189,103.577834 100,103.214316 100,102.84267 L100,43.7153503 Z M93,82 L90.2108596,74.4557417 C88.9716494,71.1030174 85.2056635,68.3854881 81.8006684,68.3854881 L25,68.3854881 L25,64.5436808 C25,62.8670044 26.380287,61.5081612 28.0827845,61.5081612 L68.3359681,61.5081612 L68.3359681,48.0348911 C68.3359681,46.3588432 69.7162551,45 71.4187527,45 L89.9167367,45 C91.6198726,45 93,46.3588432 93,48.0348911 L93,82 Z"></path>
        </g>
    </g>
</svg>