<?xml version="1.0" encoding="UTF-8"?>
<svg width="15px" height="16px" viewBox="0 0 15 16" version="1.1" xmlns="http://www.w3.org/2000/svg" xmlns:xlink="http://www.w3.org/1999/xlink">
    <!-- Generator: Sketch 48.2 (47327) - http://www.bohemiancoding.com/sketch -->
    <title>鈍떤인</title>
    <desc>Created with Sketch.</desc>
    <defs>
        <polygon id="path-1" points="0.00125348189 0.00142743009 14.9799234 0.00142743009 14.9799234 16 0.00125348189 16"></polygon>
    </defs>
    <g id="__wesketch_export" stroke="none" stroke-width="1" fill="none" fill-rule="evenodd">
        <g id="鈍떤인">
            <g>
                <mask id="mask-2" fill="white">
                    <use xlink:href="#path-1"></use>
                </mask>
                <g id="Clip-2"></g>
                <path d="M13.7355919,12.4512383 L10.4260864,11.0746631 C10.4260864,11.0746631 9.79502089,10.8135925 9.54971448,10.5561012 C9.39213092,10.3903276 9.4035585,10.0005113 9.54261142,9.50308389 C9.68168524,9.00574168 11.3781267,6.9811984 11.3781267,5.14281758 C11.3781267,2.30301997 9.62887187,0.00142743009 7.47102368,0.00142743009 C5.31325905,0.00142743009 3.56402507,2.30301997 3.56402507,5.14281758 C3.56402507,6.90339281 5.07578691,9.00350466 5.2625766,9.38458589 C5.44947075,9.76564581 5.40384401,10.3473768 5.25622563,10.5233981 C5.03440111,10.7881119 4.22651114,11.0535073 4.22651114,11.0535073 L1.24295265,12.4722876 C0.545536212,12.7391957 0,13.4409161 0,14.2322024 L0,14.6073609 C0,15.4712969 0.657513928,16 1.46542479,16 L13.5137674,16 C14.3224095,16 14.9799234,15.4712969 14.9799234,14.6073609 L14.9799234,14.2322024 C14.9791922,13.4416618 14.4322563,12.7181252 13.7355919,12.4512383 Z" id="Fill-1" fill="#999999" mask="url(#mask-2)"></path>
            </g>
        </g>
    </g>
</svg>