<?xml version="1.0" encoding="UTF-8"?>
<svg width="16px" height="16px" viewBox="0 0 16 16" version="1.1" xmlns="http://www.w3.org/2000/svg" xmlns:xlink="http://www.w3.org/1999/xlink">
    <!-- Generator: Sketch 48.2 (47327) - http://www.bohemiancoding.com/sketch -->
    <title>搜索-2</title>
    <desc>Created with Sketch.</desc>
    <defs>
        <polygon id="path-1" points="0.00132596685 0.0180164384 15.9917182 0.0180164384 15.9917182 15.9781096 0.00132596685 15.9781096"></polygon>
    </defs>
    <g id="__wesketch_export" stroke="none" stroke-width="1" fill="none" fill-rule="evenodd">
        <g id="搜索-2">
            <g>
                <mask id="mask-2" fill="white">
                    <use xlink:href="#path-1"></use>
                </mask>
                <g id="Clip-2"></g>
                <path d="M11.7675138,10.2923397 C12.5721768,9.19509041 13.0750276,7.89832329 13.0750276,6.50185205 C13.0750276,2.91075068 10.1583204,0.0180164384 6.53754696,0.0180164384 C2.91668508,0.0180164384 0,2.91075068 0,6.50185205 C0,10.0928438 2.91668508,12.9855781 6.53754696,12.9855781 C7.94561326,12.9855781 9.25310497,12.4868603 10.3594696,11.7885808 L14.2819448,15.6788164 C14.684221,16.077874 15.2877348,16.077874 15.690011,15.6788164 C16.0922873,15.2798466 16.0922873,14.6812932 15.690011,14.2823233 L11.7675138,10.2923397 Z M6.53754696,11.9880548 C3.5201989,11.9880548 1.00579006,9.49431233 1.00579006,6.50176438 C1.00579006,3.50928219 3.5201989,1.01553973 6.53754696,1.01553973 C9.55489503,1.01553973 12.0692376,3.50928219 12.0692376,6.50185205 C12.0692376,9.49431233 9.55480663,11.9880548 6.53745856,11.9880548 L6.53754696,11.9880548 Z" id="Fill-1" fill="#D4D4D4" mask="url(#mask-2)"></path>
            </g>
        </g>
    </g>
</svg>